<?xml version="1.0" standalone="no"?>
<!DOCTYPE svg PUBLIC "-//W3C//DTD SVG 20010904//EN"
 "http://www.w3.org/TR/2001/REC-SVG-20010904/DTD/svg10.dtd">
<svg version="1.0" xmlns="http://www.w3.org/2000/svg"
 width="512.000000pt" height="512.000000pt" viewBox="0 0 512.000000 512.000000"
 preserveAspectRatio="xMidYMid meet">
<metadata>
Created by potrace 1.11, written by Peter Selinger 2001-2013
</metadata>
<g transform="translate(0.000000,512.000000) scale(0.100000,-0.100000)"
fill="#000000" stroke="none">
<path d="M810 2561 l0 -2301 478 2 477 3 3 848 2 847 343 0 343 0 99 -187 c54
-104 175 -336 270 -518 216 -414 413 -791 473 -906 l47 -89 485 3 485 2 3 80
2 80 -466 865 c-257 476 -469 872 -471 882 -4 12 15 28 67 58 131 77 204 133
311 239 263 262 371 541 373 956 1 282 -38 474 -139 680 -198 404 -576 641
-1165 732 -90 14 -246 17 -1062 20 l-958 4 0 -2300z m1764 1479 c330 -32 525
-183 582 -450 24 -109 21 -285 -5 -384 -54 -205 -204 -345 -436 -408 -75 -20
-106 -22 -512 -26 l-433 -3 0 640 0 641 353 0 c193 0 397 -5 451 -10z"/>
</g>
</svg>
