<svg version="1.1" xmlns="http://www.w3.org/2000/svg" viewBox="0 0 797.6153626235202 718" width="797.6153626235202" height="718">
  <!-- svg-source:excalidraw -->
  
  <defs>
    <style class="style-fonts">
      
    </style>
    
  </defs>
  <rect x="0" y="0" width="797.6153626235202" height="718" fill="#07b8ba"></rect><g stroke-linecap="round" transform="translate(10 560) rotate(0 34.5 34.5)"><path d="M38.04 0.27 C44.43 0.57, 52.88 5.1, 58.08 9.78 C63.28 14.45, 68.08 21.63, 69.23 28.32 C70.39 35.01, 67.88 43.73, 64.99 49.9 C62.11 56.06, 57.69 62.27, 51.93 65.31 C46.18 68.35, 37.14 69.05, 30.46 68.15 C23.79 67.24, 16.89 64.34, 11.87 59.9 C6.85 55.46, 1.77 48.01, 0.35 41.5 C-1.07 34.98, 0.55 26.92, 3.36 20.82 C6.16 14.72, 10.41 8.24, 17.17 4.91 C23.93 1.57, 38.73 1.06, 43.94 0.83 C49.14 0.6, 48.65 2.98, 48.4 3.52 M23.98 2.28 C30.21 -0.32, 39.1 -0.21, 45.59 1.61 C52.09 3.43, 59.05 7.61, 62.95 13.18 C66.86 18.75, 68.87 28.1, 69.03 35.04 C69.19 41.98, 67.9 49.6, 63.91 54.81 C59.91 60.01, 51.92 64.06, 45.05 66.28 C38.19 68.5, 29.11 69.94, 22.72 68.12 C16.33 66.31, 10.73 60.7, 6.71 55.38 C2.7 50.05, -1.18 43.13, -1.36 36.16 C-1.54 29.2, 1.63 19.2, 5.65 13.57 C9.68 7.95, 19.88 4.39, 22.8 2.39 C25.72 0.4, 23.02 1.12, 23.17 1.61" stroke="none" stroke-width="0" fill="#e7f5ff"></path><path d="M21.39 1.41 C27.11 -1.2, 36.9 -0.09, 43.61 1.9 C50.32 3.88, 57.47 8.02, 61.65 13.32 C65.83 18.62, 68.27 27.02, 68.7 33.69 C69.13 40.36, 67.96 47.83, 64.23 53.35 C60.5 58.87, 52.7 64.27, 46.31 66.82 C39.91 69.36, 32.34 70.4, 25.85 68.62 C19.35 66.84, 11.5 61.47, 7.35 56.15 C3.2 50.83, 1.35 43.29, 0.93 36.7 C0.5 30.12, 0.55 22.78, 4.79 16.64 C9.02 10.5, 21.82 2.51, 26.33 -0.13 C30.84 -2.76, 31.55 0.18, 31.83 0.84 M31.48 1.24 C37.55 0.59, 46.6 1.72, 52.55 5.31 C58.5 8.9, 64.87 16.73, 67.2 22.79 C69.53 28.84, 68.56 35.13, 66.54 41.66 C64.51 48.19, 59.96 57.65, 55.05 61.98 C50.13 66.31, 43.49 67.35, 37.06 67.64 C30.62 67.92, 22.44 67.26, 16.43 63.68 C10.41 60.11, 3.58 52.28, 0.96 46.18 C-1.67 40.09, -1.19 33.7, 0.68 27.11 C2.55 20.52, 7.01 11.37, 12.19 6.65 C17.37 1.93, 28.51 -0.39, 31.76 -1.19 C35.02 -2, 31.4 1.06, 31.71 1.84" stroke="#1e1e1e" stroke-width="2" fill="none"></path></g><g stroke-linecap="round" transform="translate(59 10) rotate(0 349 349)"><path d="M323.2 1.24 C345.63 -5.96, 371.84 0.3, 395.65 3.48 C419.46 6.67, 443.3 12.17, 466.06 20.36 C488.82 28.55, 511.36 40.01, 532.21 52.64 C553.06 65.26, 573.65 79.33, 591.14 96.09 C608.63 112.86, 623.55 133.24, 637.16 153.23 C650.78 173.22, 663.55 193.61, 672.82 216.02 C682.09 238.42, 688.45 263.76, 692.78 287.65 C697.11 311.54, 699.67 335.27, 698.8 359.34 C697.92 383.41, 693.42 408.73, 687.54 432.08 C681.65 455.44, 673.95 477.91, 663.49 499.48 C653.02 521.05, 639.69 542.2, 624.75 561.51 C609.8 580.82, 592.38 599.41, 573.83 615.34 C555.28 631.26, 534.54 645.54, 513.44 657.07 C492.34 668.6, 470.22 677.88, 447.23 684.52 C424.23 691.17, 399.71 695.08, 375.49 696.96 C351.27 698.83, 325.95 698.9, 301.91 695.77 C277.88 692.65, 253.9 686.51, 231.27 678.22 C208.64 669.92, 186.58 658.88, 166.12 646.01 C145.67 633.14, 126.09 617.71, 108.53 600.99 C90.97 584.26, 74.68 565.69, 60.77 545.67 C46.86 525.66, 34.14 503.12, 25.07 480.88 C16 458.65, 10.53 436.1, 6.36 412.24 C2.19 388.39, -0.69 362.08, 0.06 337.75 C0.81 313.41, 5.11 289.71, 10.86 266.25 C16.62 242.8, 24.23 218.7, 34.59 197.04 C44.95 175.37, 58.16 155.35, 73.04 136.27 C87.93 117.2, 105.47 98.37, 123.9 82.58 C142.33 66.8, 162.37 53.1, 183.62 41.56 C204.87 30.02, 227.56 20.13, 251.41 13.35 C275.25 6.56, 313.12 1.88, 326.7 0.87 C340.28 -0.15, 332.32 1.51, 332.9 7.23 M380.43 2.57 C403.7 -0.8, 428.68 9.89, 451.69 16.64 C474.71 23.4, 497.4 31.36, 518.52 43.09 C539.64 54.82, 560.23 71.06, 578.42 87.03 C596.61 103, 612.92 119.61, 627.65 138.91 C642.38 158.21, 656.43 181.08, 666.81 202.83 C677.19 224.59, 684.56 245.86, 689.93 269.42 C695.29 292.99, 698.98 320.03, 699 344.22 C699.03 368.42, 694.79 391.28, 690.05 414.59 C685.32 437.9, 680 461.79, 670.6 484.09 C661.2 506.4, 647.57 528.14, 633.66 548.42 C619.75 568.7, 604.78 589.22, 587.15 605.78 C569.51 622.34, 548.75 635.6, 527.86 647.77 C506.96 659.94, 484.75 670.95, 461.79 678.8 C438.83 686.65, 414.16 691.85, 390.08 694.87 C366 697.9, 341.26 699.14, 317.31 696.95 C293.36 694.77, 269.12 688.75, 246.38 681.75 C223.64 674.76, 201.96 666.43, 180.87 655 C159.77 643.57, 138.44 629.06, 119.83 613.18 C101.23 597.3, 83.58 579.3, 69.23 559.73 C54.88 540.16, 43.57 517.84, 33.72 495.75 C23.87 473.65, 15.69 450.56, 10.11 427.15 C4.52 403.74, 0.68 379.63, 0.22 355.31 C-0.23 330.98, 2.69 305.24, 7.38 281.18 C12.06 257.13, 19.26 233.13, 28.32 210.97 C37.39 188.8, 47.75 167.79, 61.75 148.19 C75.76 128.6, 94.42 109.55, 112.33 93.38 C130.24 77.22, 148.92 63.74, 169.23 51.18 C189.54 38.61, 211.38 26.32, 234.22 18 C257.05 9.68, 282.02 4.09, 306.25 1.25 C330.48 -1.58, 367.26 0, 379.58 0.99 C391.9 1.98, 380.59 1.39, 380.17 7.19" stroke="#1e1e1e" stroke-width="2" fill="none"></path></g><g stroke-linecap="round"><g transform="translate(136.95713067476527 535.4069140101101) rotate(0 -29.546081558376386 19.187019117700743)"><path d="M0.4 -1.18 C-9.56 5.28, -49.93 32.1, -59.8 38.65 M-0.85 0.81 C-10.41 6.9, -47.7 30.25, -57.47 36.68" stroke="#1e1e1e" stroke-width="2" fill="none"></path></g><g transform="translate(136.95713067476527 535.4069140101101) rotate(0 -29.546081558376386 19.187019117700743)"><path d="M2.29 -0.69 L-6.4 10.89 L-16.04 2.93 L1.38 0.19" stroke="none" stroke-width="0" fill="#1e1e1e" fill-rule="evenodd"></path><path d="M0.4 -1.18 C-3.4 1.72, -3.88 6.71, -7.45 11.6 M0.4 -1.18 C-1.56 3.03, -3.92 5.54, -7.45 11.6 M-7.45 11.6 C-10.51 8.73, -9.98 5.86, -14.44 1.02 M-7.45 11.6 C-9.17 8.9, -11.67 5.48, -14.44 1.02 M-14.44 1.02 C-10.18 -0.13, -7.36 1.13, 0.4 -1.18 M-14.44 1.02 C-8.76 -0.48, -4.84 -0.22, 0.4 -1.18 M0.4 -1.18 C0.4 -1.18, 0.4 -1.18, 0.4 -1.18 M0.4 -1.18 C0.4 -1.18, 0.4 -1.18, 0.4 -1.18" stroke="#1e1e1e" stroke-width="2" fill="none"></path></g></g><mask></mask><g stroke-linecap="round" transform="translate(66.79994182307269 10.595207826998148) rotate(0 34.5 34.5)"><path d="M44.7 1.1 C51.09 2.61, 57.84 8.64, 61.79 14.17 C65.75 19.7, 68.14 27.73, 68.43 34.29 C68.73 40.84, 67.31 47.96, 63.55 53.49 C59.79 59.02, 52.35 65.15, 45.87 67.46 C39.4 69.77, 30.99 69.34, 24.7 67.34 C18.4 65.35, 12.3 60.65, 8.09 55.5 C3.88 50.35, -0.13 43.21, -0.56 36.44 C-0.99 29.67, 1.58 20.68, 5.54 14.91 C9.5 9.13, 16.08 3.91, 23.18 1.8 C30.29 -0.31, 43.53 1.91, 48.15 2.25 C52.77 2.59, 51.24 3.22, 50.91 3.86 M49.21 4.37 C55.07 6.85, 63.07 12.26, 66.16 18.29 C69.24 24.31, 69.09 33.55, 67.72 40.49 C66.36 47.43, 62.45 55.46, 57.96 59.92 C53.47 64.38, 47.14 66.46, 40.77 67.25 C34.4 68.04, 25.86 67.75, 19.76 64.64 C13.67 61.53, 7.29 54.62, 4.2 48.59 C1.11 42.56, 0.19 35.12, 1.23 28.46 C2.27 21.8, 5.53 13.13, 10.44 8.66 C15.35 4.18, 24.21 2.47, 30.69 1.6 C37.17 0.74, 46.28 3.21, 49.31 3.45 C52.34 3.69, 48.98 2.5, 48.87 3.05" stroke="none" stroke-width="0" fill="#e7f5ff"></path><path d="M45.98 2.57 C51.99 3.95, 57.95 8.56, 61.85 13.78 C65.76 18.99, 69.18 26.89, 69.41 33.84 C69.63 40.8, 67.28 49.97, 63.19 55.48 C59.1 60.99, 51.42 64.88, 44.86 66.91 C38.31 68.93, 30.41 69.76, 23.85 67.63 C17.29 65.5, 9.53 59.63, 5.49 54.14 C1.45 48.64, -0.58 41.48, -0.4 34.68 C-0.22 27.87, 2.48 18.79, 6.57 13.29 C10.66 7.79, 17.19 3.34, 24.13 1.68 C31.08 0.02, 43.63 2.78, 48.24 3.36 C52.85 3.94, 52.01 4.87, 51.79 5.18 M32.09 -0.4 C38.36 -1.39, 48.5 1.67, 54.12 5.39 C59.74 9.1, 63.51 15.42, 65.82 21.9 C68.13 28.37, 69.86 37.44, 67.98 44.23 C66.1 51.03, 60.05 58.42, 54.56 62.66 C49.07 66.9, 41.73 69.78, 35.06 69.68 C28.38 69.59, 20.21 66.04, 14.52 62.1 C8.83 58.17, 3.03 52.47, 0.93 46.08 C-1.17 39.7, 0.04 30.32, 1.92 23.78 C3.8 17.25, 6.83 10.68, 12.19 6.88 C17.56 3.08, 30.6 1.82, 34.11 0.96 C37.61 0.11, 33.26 1.39, 33.23 1.76" stroke="#1e1e1e" stroke-width="2" fill="none"></path></g><g stroke-linecap="round"><g transform="translate(196.7999418230727 127.59520782699815) rotate(0 -31 -31)"><path d="M0.77 0.86 C-9.42 -9.31, -51 -50.65, -61.3 -61.26 M-0.29 0.27 C-10.56 -10.22, -51.72 -52.63, -61.88 -63" stroke="#1e1e1e" stroke-width="2" fill="none"></path></g><g transform="translate(196.7999418230727 127.59520782699815) rotate(0 -31 -31)"><path d="M0.72 2.26 L-12.65 -4.64 L-3.59 -13.92 L1.91 -0.23" stroke="none" stroke-width="0" fill="#1e1e1e" fill-rule="evenodd"></path><path d="M0.77 0.86 C-2.19 0.36, -6.4 -0.77, -13.33 -4.25 M0.77 0.86 C-3.12 0.42, -5.32 -1.51, -13.33 -4.25 M-13.33 -4.25 C-12.32 -7.14, -9.34 -8.32, -4.38 -13.23 M-13.33 -4.25 C-10.68 -7.06, -7.95 -9.12, -4.38 -13.23 M-4.38 -13.23 C-3 -7.83, -0.09 -5.98, 0.77 0.86 M-4.38 -13.23 C-3.48 -9.76, -1.39 -5.42, 0.77 0.86 M0.77 0.86 C0.77 0.86, 0.77 0.86, 0.77 0.86 M0.77 0.86 C0.77 0.86, 0.77 0.86, 0.77 0.86" stroke="#1e1e1e" stroke-width="2" fill="none"></path></g></g><mask></mask><g stroke-linecap="round" transform="translate(718.6153626235202 29.06919994335624) rotate(0 34.5 34.5)"><path d="M30.77 0.12 C36.99 -1.03, 45.92 0.69, 51.94 4.05 C57.97 7.41, 64.14 13.88, 66.93 20.28 C69.72 26.68, 70.38 35.85, 68.68 42.43 C66.98 49.02, 61.99 55.32, 56.73 59.78 C51.47 64.23, 43.67 68.53, 37.12 69.16 C30.56 69.79, 23.01 67.06, 17.42 63.54 C11.83 60.01, 6.24 54.11, 3.58 48.01 C0.92 41.91, -0.02 33.54, 1.48 26.95 C2.98 20.37, 6.83 13.13, 12.59 8.51 C18.34 3.89, 31.78 0.52, 36.01 -0.77 C40.24 -2.06, 38.23 -0.01, 37.98 0.76 M25.05 1.33 C30.88 -0.56, 40.23 0.28, 46.48 2.75 C52.73 5.22, 58.9 10.45, 62.53 16.16 C66.17 21.87, 68.6 30.59, 68.3 37.02 C67.99 43.45, 64.81 49.47, 60.68 54.75 C56.56 60.03, 49.77 66.74, 43.53 68.7 C37.28 70.66, 29.74 69, 23.21 66.54 C16.68 64.08, 7.97 59.54, 4.34 53.94 C0.71 48.33, 0.86 39.76, 1.4 32.9 C1.95 26.03, 3.37 18.13, 7.61 12.77 C11.86 7.41, 23.96 2.45, 26.86 0.74 C29.76 -0.98, 24.84 1.77, 24.99 2.46" stroke="none" stroke-width="0" fill="#e7f5ff"></path><path d="M43.29 1.05 C49.53 2.12, 56 7.86, 60.25 12.9 C64.5 17.94, 68.19 24.62, 68.78 31.27 C69.37 37.92, 67.17 46.85, 63.77 52.81 C60.37 58.77, 54.51 64.46, 48.37 67.03 C42.24 69.61, 33.79 69.87, 26.96 68.27 C20.12 66.67, 11.94 62.62, 7.37 57.45 C2.79 52.28, -0.16 44.11, -0.52 37.23 C-0.87 30.35, 1.64 21.92, 5.25 16.17 C8.85 10.42, 14.39 5.32, 21.11 2.73 C27.83 0.14, 41.35 0.5, 45.55 0.65 C49.76 0.79, 46.72 3.06, 46.35 3.61 M24.82 0.31 C30.77 -1.7, 37.73 0.41, 43.74 2.93 C49.76 5.45, 56.84 10.45, 60.9 15.42 C64.96 20.39, 68.02 26.23, 68.09 32.74 C68.16 39.25, 64.99 48.64, 61.32 54.5 C57.64 60.36, 52.25 65.63, 46.02 67.92 C39.79 70.22, 30.47 70.32, 23.93 68.28 C17.39 66.25, 10.61 61.31, 6.8 55.74 C2.99 50.17, 1.1 41.85, 1.08 34.85 C1.05 27.84, 2.73 19.43, 6.64 13.72 C10.56 8.01, 21.8 2.44, 24.57 0.58 C27.34 -1.27, 23.42 1.95, 23.27 2.59" stroke="#1e1e1e" stroke-width="2" fill="none"></path></g><g stroke-linecap="round"><g transform="translate(651.6153626235202 159.06919994335624) rotate(0 33 -31)"><path d="M0.57 0.08 C11.7 -9.99, 55.92 -50.79, 66.84 -61.25 M-0.59 -0.92 C10.46 -11.27, 55.34 -52.84, 66.33 -62.97" stroke="#1e1e1e" stroke-width="2" fill="none"></path></g><g transform="translate(651.6153626235202 159.06919994335624) rotate(0 33 -31)"><path d="M-0.15 0.3 L4.88 -14.61 L13.97 -4.44 L0.24 0.91" stroke="none" stroke-width="0" fill="#1e1e1e" fill-rule="evenodd"></path><path d="M0.57 0.08 C2.5 -3.12, 5.08 -8.29, 6.27 -13.79 M0.57 0.08 C1.39 -3.37, 3.4 -6.11, 6.27 -13.79 M6.27 -13.79 C8.39 -9.65, 11.77 -6.9, 14.87 -4.47 M6.27 -13.79 C9.02 -10.38, 11.01 -8.13, 14.87 -4.47 M14.87 -4.47 C8.63 -4.15, 2.89 -0.03, 0.57 0.08 M14.87 -4.47 C11.26 -2.72, 8.59 -3.25, 0.57 0.08 M0.57 0.08 C0.57 0.08, 0.57 0.08, 0.57 0.08 M0.57 0.08 C0.57 0.08, 0.57 0.08, 0.57 0.08" stroke="#1e1e1e" stroke-width="2" fill="none"></path></g></g><mask></mask></svg>