<svg version="1.1" xmlns="http://www.w3.org/2000/svg" viewBox="0 0 589.5 94.5" width="589.5" height="94.5">
  <!-- svg-source:excalidraw -->
  
  <defs>
    <style class="style-fonts">
      
    </style>
    
  </defs>
  <rect x="0" y="0" width="589.5" height="94.5" fill="#07b8ba"></rect><g stroke-linecap="round" transform="translate(10 13.5) rotate(0 34.5 34.5)"><path d="M33.73 -0.38 C40.08 -0.97, 48.99 2.43, 54.41 6.18 C59.84 9.93, 63.96 15.73, 66.28 22.1 C68.61 28.47, 70.13 37.91, 68.38 44.41 C66.63 50.91, 61.38 56.98, 55.77 61.08 C50.17 65.18, 41.68 68.61, 34.76 69.02 C27.83 69.43, 19.71 67.33, 14.24 63.53 C8.77 59.73, 4.23 52.64, 1.95 46.22 C-0.32 39.81, -1.25 31.63, 0.58 25.03 C2.42 18.44, 7.31 10.78, 12.97 6.64 C18.62 2.51, 30.76 1.23, 34.51 0.23 C38.25 -0.77, 35.32 0.21, 35.44 0.62 M45.09 0.31 C51.42 1.76, 58.31 7.85, 62.07 13.34 C65.84 18.82, 67.56 26.4, 67.66 33.21 C67.77 40.03, 66.4 48.47, 62.68 54.24 C58.96 60.01, 51.85 65.68, 45.35 67.85 C38.85 70.02, 29.85 69.56, 23.68 67.26 C17.52 64.97, 12.49 59.62, 8.35 54.08 C4.21 48.53, -0.81 40.72, -1.15 33.99 C-1.5 27.26, 2.15 18.92, 6.28 13.71 C10.41 8.49, 17.01 4.5, 23.63 2.7 C30.25 0.9, 42.49 2.86, 46.02 2.92 C49.54 2.98, 45.13 2.57, 44.77 3.06" stroke="none" stroke-width="0" fill="#e7f5ff"></path><path d="M22.99 2.69 C28.93 -0.22, 37.32 -1.2, 43.88 0.46 C50.44 2.12, 58.25 7.19, 62.36 12.67 C66.46 18.14, 68.25 26.47, 68.5 33.3 C68.75 40.14, 67.67 48.19, 63.87 53.67 C60.07 59.14, 52.15 63.75, 45.7 66.15 C39.26 68.55, 31.45 69.68, 25.21 68.08 C18.96 66.48, 12.55 62, 8.23 56.56 C3.91 51.12, -0.36 42.46, -0.72 35.44 C-1.08 28.43, 1.29 20.39, 6.07 14.48 C10.85 8.57, 23.71 2.28, 27.97 -0.02 C32.22 -2.31, 31.58 0.17, 31.61 0.72 M19.15 4.78 C24.54 1.54, 33.97 -1.18, 40.46 -0.1 C46.96 0.98, 53.57 6.43, 58.1 11.28 C62.63 16.14, 66.29 22.7, 67.65 29.05 C69.01 35.4, 69.31 43.56, 66.27 49.37 C63.22 55.18, 55.5 60.87, 49.37 63.92 C43.24 66.96, 35.82 68.36, 29.48 67.65 C23.13 66.95, 16.39 64.39, 11.32 59.69 C6.24 54.99, 0.3 46.24, -0.95 39.46 C-2.2 32.68, 0.39 24.93, 3.83 18.99 C7.27 13.05, 17.07 6.23, 19.7 3.82 C22.34 1.4, 19.36 3.92, 19.64 4.49" stroke="#1e1e1e" stroke-width="2" fill="none"></path></g><g stroke-linecap="round" transform="translate(229 13.5) rotate(0 35.5 35.5)"><path d="M51.51 5 C57.51 7.75, 64.72 14.57, 67.93 20.87 C71.14 27.18, 72.17 36.09, 70.78 42.81 C69.38 49.52, 64.6 56.52, 59.57 61.16 C54.54 65.79, 47.48 69.79, 40.57 70.63 C33.67 71.47, 24.46 69.36, 18.16 66.2 C11.86 63.03, 5.68 57.66, 2.77 51.64 C-0.14 45.61, -0.62 36.87, 0.7 30.04 C2.03 23.21, 5.75 15.53, 10.72 10.65 C15.68 5.78, 23.19 1.72, 30.51 0.79 C37.84 -0.15, 50.7 3.97, 54.65 5.04 C58.59 6.1, 54.59 6.63, 54.2 7.17 M41.56 -0.96 C48.24 -0.38, 56.67 5.96, 61.31 11.16 C65.95 16.36, 68.61 23.63, 69.41 30.25 C70.21 36.87, 68.92 44.59, 66.1 50.89 C63.28 57.2, 58.73 64.95, 52.5 68.08 C46.27 71.22, 35.59 70.87, 28.73 69.69 C21.87 68.51, 15.82 66.03, 11.33 61.01 C6.84 55.99, 3.12 46.58, 1.8 39.57 C0.49 32.56, 0.64 25.01, 3.43 18.96 C6.21 12.92, 12.15 6.4, 18.53 3.3 C24.91 0.19, 37.93 0.52, 41.7 0.34 C45.47 0.16, 41.32 1.61, 41.14 2.22" stroke="none" stroke-width="0" fill="#e7f5ff"></path><path d="M46.27 1.16 C52.72 2.84, 58.73 9.24, 62.83 14.91 C66.94 20.58, 70.48 28.37, 70.9 35.18 C71.33 42, 69.24 50.31, 65.37 55.79 C61.51 61.27, 54.3 65.86, 47.74 68.08 C41.18 70.29, 32.79 70.99, 26.03 69.1 C19.27 67.21, 11.4 62.11, 7.17 56.72 C2.93 51.33, 0.7 43.83, 0.62 36.78 C0.53 29.72, 2.73 20.18, 6.65 14.4 C10.56 8.63, 17.14 4.09, 24.13 2.15 C31.11 0.2, 44.17 2.36, 48.54 2.74 C52.91 3.12, 50.66 4.01, 50.36 4.43 M43.14 -0.43 C49.67 0.33, 57.09 6.95, 61.7 12.1 C66.3 17.25, 70.1 23.96, 70.75 30.47 C71.4 36.98, 68.76 44.94, 65.58 51.17 C62.4 57.4, 57.97 64.75, 51.69 67.84 C45.42 70.93, 34.91 71, 27.94 69.71 C20.96 68.43, 14.31 65.05, 9.84 60.15 C5.38 55.26, 2.01 47.35, 1.14 40.33 C0.27 33.32, 1.57 24.25, 4.64 18.05 C7.71 11.84, 13.53 6.19, 19.55 3.09 C25.58 -0.01, 37.28 -0.13, 40.78 -0.56 C44.29 -0.98, 40.55 -0.14, 40.57 0.55" stroke="#1e1e1e" stroke-width="2" fill="none"></path></g><g stroke-linecap="round"><g transform="translate(87.02169442875083 47.36320889772219) rotate(0 27.989152785624583 0.5683955511389058)"><path d="M-0.39 -0.67 C9.06 -0.41, 47.4 0.37, 56.93 0.79 M1.61 1.6 C10.96 2.09, 47.34 2.43, 56.49 2.14" stroke="#e03131" stroke-width="4" fill="none"></path></g><g transform="translate(87.02169442875083 47.36320889772219) rotate(0 27.989152785624583 0.5683955511389058)"><path d="M33.06 10.86 C39.5 9.74, 47.53 6.78, 56.49 2.14 M33.06 10.86 C40.79 7.36, 49.51 3.72, 56.49 2.14" stroke="#e03131" stroke-width="4" fill="none"></path></g><g transform="translate(87.02169442875083 47.36320889772219) rotate(0 27.989152785624583 0.5683955511389058)"><path d="M32.94 -6.24 C39.31 -1.88, 47.38 0.62, 56.49 2.14 M32.94 -6.24 C40.83 -3.59, 49.59 -1.08, 56.49 2.14" stroke="#e03131" stroke-width="4" fill="none"></path></g></g><mask></mask><g stroke-linecap="round"><g transform="translate(224.01943043135384 50.35036565344171) rotate(0 -34.50971521567692 -0.4251828267208566)"><path d="M-0.66 -0.91 C-12.11 -0.95, -57.08 -1.18, -68.67 -1 M1.2 1.22 C-10.39 1.44, -57.92 0.94, -69.44 0.46" stroke="#e03131" stroke-width="4" fill="none"></path></g><g transform="translate(224.01943043135384 50.35036565344171) rotate(0 -34.50971521567692 -0.4251828267208566)"><path d="M-45.75 -7.55 C-54.56 -4.65, -60.53 -4.74, -69.44 0.46 M-45.75 -7.55 C-54.29 -5.6, -63.82 -2.37, -69.44 0.46" stroke="#e03131" stroke-width="4" fill="none"></path></g><g transform="translate(224.01943043135384 50.35036565344171) rotate(0 -34.50971521567692 -0.4251828267208566)"><path d="M-46.15 9.55 C-54.73 7.22, -60.57 1.91, -69.44 0.46 M-46.15 9.55 C-54.6 4.96, -63.98 1.65, -69.44 0.46" stroke="#e03131" stroke-width="4" fill="none"></path></g></g><mask></mask><g stroke-linecap="round" transform="translate(508.5 10) rotate(0 35.5 35.5)"><path d="M48.53 2.12 C54.64 4.17, 60.94 10.87, 64.74 16.65 C68.53 22.43, 71.74 30.05, 71.31 36.78 C70.89 43.51, 66.51 51.43, 62.16 57.04 C57.82 62.65, 51.9 68.51, 45.27 70.42 C38.63 72.32, 29.05 71.18, 22.38 68.48 C15.71 65.77, 9.11 60.12, 5.25 54.18 C1.39 48.25, -1.18 39.68, -0.76 32.87 C-0.34 26.05, 3.25 18.49, 7.78 13.29 C12.31 8.09, 18.85 3.24, 26.41 1.68 C33.97 0.13, 48.31 2.88, 53.14 3.95 C57.98 5.02, 55.82 7.49, 55.4 8.1 M42.53 1.43 C48.9 2.52, 57.92 7.34, 62.57 12.4 C67.21 17.45, 69.58 24.8, 70.4 31.76 C71.21 38.72, 71.15 48.15, 67.44 54.14 C63.73 60.13, 54.73 64.96, 48.14 67.72 C41.56 70.48, 34.37 72.03, 27.92 70.7 C21.48 69.36, 14.25 65.26, 9.47 59.72 C4.7 54.18, -0.23 44.36, -0.73 37.46 C-1.23 30.57, 2.62 24.11, 6.47 18.33 C10.33 12.55, 16.17 5.92, 22.4 2.8 C28.64 -0.31, 40.39 -0.31, 43.88 -0.36 C47.38 -0.4, 43.43 1.83, 43.37 2.55" stroke="none" stroke-width="0" fill="#e7f5ff"></path><path d="M17.86 4.67 C23.6 1.02, 33.36 -1.39, 40.34 -0.6 C47.31 0.18, 54.77 4.58, 59.71 9.37 C64.66 14.17, 68.71 21.4, 70.01 28.18 C71.31 34.96, 70.32 43.77, 67.49 50.04 C64.66 56.3, 59.19 62.26, 53.05 65.77 C46.91 69.28, 37.83 71.71, 30.65 71.09 C23.48 70.47, 15.07 66.78, 10.02 62.06 C4.97 57.33, 1.3 49.59, 0.34 42.75 C-0.62 35.92, 0.83 27.5, 4.25 21.05 C7.68 14.59, 17.78 7, 20.89 4.03 C23.99 1.07, 22.76 2.78, 22.89 3.23 M33.17 0.63 C39.95 -0.13, 48.13 2.34, 54.1 6.02 C60.07 9.71, 66.14 16.5, 68.99 22.75 C71.84 28.99, 72.85 37, 71.22 43.47 C69.58 49.93, 64.68 57.2, 59.17 61.55 C53.67 65.89, 45.13 68.76, 38.2 69.54 C31.27 70.33, 23.4 69.48, 17.59 66.27 C11.79 63.07, 6.33 56.93, 3.36 50.33 C0.38 43.72, -1.67 33.63, -0.25 26.63 C1.18 19.63, 6.49 12.78, 11.91 8.33 C17.34 3.88, 28.99 1.25, 32.3 -0.08 C35.61 -1.41, 31.78 -0.34, 31.79 0.35" stroke="#1e1e1e" stroke-width="2" fill="none"></path></g><g stroke-linecap="round"><g transform="translate(498 43.5) rotate(0 -10.5 0)"><path d="M-0.17 0.42 C-3.59 0.44, -17.12 -0.01, -20.65 -0.07 M0.74 0.16 C-2.71 0.29, -17.4 0.5, -20.91 0.59" stroke="#e03131" stroke-width="2" fill="none"></path></g><g transform="translate(498 43.5) rotate(0 -10.5 0)"><path d="M-11.11 -3.19 C-13.41 -1.84, -16.56 -1.51, -20.91 0.59 M-11.11 -3.19 C-14.27 -2.3, -17.17 -0.9, -20.91 0.59" stroke="#e03131" stroke-width="2" fill="none"></path></g><g transform="translate(498 43.5) rotate(0 -10.5 0)"><path d="M-10.97 3.99 C-13.29 3.37, -16.48 1.73, -20.91 0.59 M-10.97 3.99 C-14.2 2.66, -17.14 1.83, -20.91 0.59" stroke="#e03131" stroke-width="2" fill="none"></path></g></g><mask></mask></svg>