# Blender 4.2.0
# www.blender.org
mtllib fishy.mtl
o Cube_Cube.001
v -0.066456 -0.306486 0.500000
v -0.066456 0.306487 0.500000
v -0.066456 -0.183759 -0.500000
v -0.066456 0.183759 -0.500000
v 0.066456 -0.306486 0.500000
v 0.066456 0.306486 0.500000
v 0.066456 -0.183759 -0.500000
v 0.066456 0.183759 -0.500000
v -0.076150 -0.210563 -0.296650
v -0.081019 -0.178837 -0.084050
v -0.034617 -0.076444 0.296650
v -0.035241 -0.181838 0.529356
v -0.037494 0.000000 0.565991
v -0.035241 0.181838 0.529356
v -0.034617 0.076444 0.296650
v -0.081019 0.178837 -0.084050
v -0.076150 0.210563 -0.296650
v -0.076150 0.109024 -0.572933
v -0.081019 -0.000000 -0.609568
v -0.076150 -0.109024 -0.572933
v 0.039429 -0.210563 -0.572933
v 0.000000 -0.224027 -0.609568
v -0.039429 -0.210563 -0.572933
v -0.039429 0.210563 -0.572933
v 0.000000 0.224027 -0.609568
v 0.039429 0.210563 -0.572933
v 0.076150 0.109024 -0.572933
v 0.081019 -0.000000 -0.609568
v 0.076150 -0.109024 -0.572933
v 0.034617 -0.076444 0.296650
v 0.081019 -0.178837 -0.084050
v 0.076150 -0.210563 -0.296650
v 0.076150 0.210563 -0.296650
v 0.081019 0.178837 -0.084050
v 0.034617 0.076444 0.296650
v 0.035241 0.181838 0.529356
v 0.037494 0.000000 0.565991
v 0.035241 -0.181838 0.529356
v 0.000000 -0.358678 0.541568
v 0.000000 0.358678 0.541568
v -0.044046 -0.042184 0.316157
v -0.047238 0.000000 0.333140
v -0.044046 0.042184 0.316157
v -0.103915 -0.097738 -0.084050
v -0.111581 -0.000000 -0.084050
v -0.103915 0.097738 -0.084050
v -0.096892 -0.116193 -0.316157
v -0.103915 -0.000000 -0.333140
v -0.096892 0.116193 -0.316157
v -0.042021 -0.116193 -0.728990
v -0.044279 -0.000000 -0.781829
v -0.042021 0.116193 -0.728990
v 0.000000 -0.122435 -0.781829
v 0.000000 -0.000000 -0.839506
v 0.000000 0.122435 -0.781829
v 0.042021 -0.116193 -0.728990
v 0.044279 -0.000000 -0.781829
v 0.042021 0.116193 -0.728990
v 0.096892 -0.116193 -0.316157
v 0.103915 -0.000000 -0.333140
v 0.096892 0.116193 -0.316157
v 0.103915 -0.097738 -0.084050
v 0.111581 -0.000000 -0.084050
v 0.103915 0.097738 -0.084050
v 0.044046 -0.042184 0.316157
v 0.047238 0.000000 0.333140
v 0.044046 0.042184 0.316157
v -0.042021 -0.267916 -0.316157
v 0.000000 -0.287336 -0.333140
v 0.042021 -0.267916 -0.316157
v -0.044279 -0.229376 -0.084050
v 0.000000 -0.246298 -0.084050
v 0.044279 -0.229376 -0.084050
v 0.000000 -0.099616 0.321818
v 0.042021 0.267916 -0.316157
v 0.000000 0.287336 -0.333140
v -0.042021 0.267916 -0.316157
v 0.044279 0.229376 -0.084050
v 0.000000 0.246298 -0.084050
v -0.044279 0.229376 -0.084050
v 0.000000 0.099616 0.321818
vn -0.9931 -0.0580 0.1024
vn -0.9968 -0.0000 0.0794
vn -0.9979 -0.0000 0.0643
vn -0.9808 -0.1781 0.0796
vn -0.9931 0.0580 0.1024
vn -0.9808 0.1781 0.0796
vn -0.9983 -0.0000 -0.0576
vn -0.9870 -0.1532 -0.0484
vn -0.9870 0.1532 -0.0484
vn -0.8778 -0.4789 -0.0144
vn -0.7316 0.0436 0.6803
vn -0.9017 -0.4202 0.1023
vn -0.6959 -0.0000 0.7181
vn -0.6969 0.0019 0.7172
vn -0.8030 0.5919 -0.0698
vn -0.9308 0.3558 0.0842
vn -0.9019 0.4100 0.1361
vn -0.9159 0.4010 -0.0174
vn -0.9252 0.3605 -0.1181
vn -0.9692 0.1947 -0.1506
vn -0.9874 -0.0000 -0.1584
vn -0.9692 -0.1947 -0.1506
vn -0.9159 -0.4010 -0.0174
vn -0.9252 -0.3605 -0.1181
vn -0.9019 -0.4100 0.1361
vn -0.8343 -0.4000 -0.3795
vn -0.8868 -0.0000 -0.4622
vn -0.0000 -0.0000 -1.0000
vn -0.0000 -0.6178 -0.7863
vn -0.8343 0.4000 -0.3795
vn -0.0000 0.6178 -0.7863
vn 0.8868 -0.0000 -0.4622
vn 0.8343 -0.4000 -0.3795
vn 0.8343 0.4000 -0.3795
vn -0.7357 -0.6342 -0.2376
vn -0.7357 0.6342 -0.2376
vn -0.0000 0.9094 -0.4159
vn 0.7357 0.6342 -0.2376
vn 0.9252 0.3605 -0.1181
vn 0.9692 0.1947 -0.1506
vn 0.9874 -0.0000 -0.1584
vn 0.9692 -0.1947 -0.1506
vn 0.7357 -0.6342 -0.2376
vn 0.9252 -0.3605 -0.1181
vn -0.0000 -0.9094 -0.4159
vn 0.9870 -0.1532 -0.0484
vn 0.9983 -0.0000 -0.0576
vn 0.9979 -0.0000 0.0643
vn 0.9808 -0.1781 0.0796
vn 0.9870 0.1532 -0.0484
vn 0.9808 0.1781 0.0796
vn 0.9968 -0.0000 0.0794
vn 0.9931 -0.0580 0.1024
vn 0.9931 0.0580 0.1024
vn 0.9159 -0.4010 -0.0174
vn 0.9159 0.4010 -0.0174
vn 0.9019 0.4100 0.1361
vn 0.9308 0.3558 0.0842
vn 0.8070 0.5881 -0.0528
vn 0.7054 0.0063 0.7088
vn 0.6733 -0.0000 0.7393
vn 0.7483 0.0502 0.6615
vn 0.9347 -0.3436 0.0913
vn 0.8388 -0.5152 -0.1758
vn 0.9019 -0.4100 0.1361
vn -0.6426 -0.7661 -0.0107
vn -0.0000 -0.9976 -0.0697
vn -0.0424 -0.9672 0.2505
vn -0.5946 -0.7889 0.1551
vn 0.6426 -0.7661 -0.0107
vn 0.5488 -0.8088 0.2113
vn -0.0113 -0.8138 -0.5810
vn -0.0000 -0.9854 0.1705
vn 0.6426 0.7661 -0.0107
vn -0.0000 0.9976 -0.0697
vn 0.0424 0.9672 0.2505
vn 0.5946 0.7889 0.1551
vn -0.6426 0.7661 -0.0107
vn -0.5488 0.8088 0.2113
vn 0.0089 0.8223 -0.5689
vn -0.0000 0.9247 0.3808
vt 0.437500 0.062500
vt 0.500000 0.062500
vt 0.500000 0.125000
vt 0.437500 0.125000
vt 0.562500 0.062500
vt 0.562500 0.125000
vt 0.500000 0.187500
vt 0.437500 0.187500
vt 0.562500 0.187500
vt 0.375000 0.000000
vt 0.437500 0.000000
vt 0.375000 0.062500
vt 0.500000 0.000000
vt 0.562500 0.000000
vt 0.625000 0.000000
vt 0.625000 0.062500
vt 0.625000 0.125000
vt 0.625000 0.187500
vt 0.625000 0.250000
vt 0.562500 0.250000
vt 0.500000 0.250000
vt 0.437500 0.250000
vt 0.375000 0.187500
vt 0.375000 0.250000
vt 0.375000 0.125000
vt 0.437500 0.312500
vt 0.500000 0.312500
vt 0.500000 0.375000
vt 0.437500 0.375000
vt 0.562500 0.312500
vt 0.562500 0.375000
vt 0.500000 0.437500
vt 0.437500 0.437500
vt 0.562500 0.437500
vt 0.375000 0.312500
vt 0.625000 0.312500
vt 0.625000 0.375000
vt 0.625000 0.437500
vt 0.625000 0.500000
vt 0.562500 0.500000
vt 0.500000 0.500000
vt 0.437500 0.500000
vt 0.375000 0.437500
vt 0.375000 0.500000
vt 0.375000 0.375000
vt 0.437500 0.562500
vt 0.500000 0.562500
vt 0.500000 0.625000
vt 0.437500 0.625000
vt 0.562500 0.562500
vt 0.562500 0.625000
vt 0.500000 0.687500
vt 0.437500 0.687500
vt 0.562500 0.687500
vt 0.375000 0.562500
vt 0.625000 0.562500
vt 0.625000 0.625000
vt 0.625000 0.687500
vt 0.625000 0.750000
vt 0.562500 0.750000
vt 0.500000 0.750000
vt 0.437500 0.750000
vt 0.375000 0.687500
vt 0.375000 0.750000
vt 0.375000 0.625000
vt 0.187500 0.562500
vt 0.250000 0.562500
vt 0.250000 0.625000
vt 0.187500 0.625000
vt 0.312500 0.562500
vt 0.312500 0.625000
vt 0.187500 0.687500
vt 0.250000 0.687500
vt 0.125000 0.500000
vt 0.187500 0.500000
vt 0.125000 0.562500
vt 0.250000 0.500000
vt 0.312500 0.500000
vt 0.312500 0.687500
vt 0.312500 0.750000
vt 0.125000 0.687500
vt 0.187500 0.750000
vt 0.125000 0.750000
vt 0.125000 0.625000
vt 0.687500 0.562500
vt 0.750000 0.562500
vt 0.750000 0.625000
vt 0.687500 0.625000
vt 0.812500 0.562500
vt 0.812500 0.625000
vt 0.687500 0.687500
vt 0.750000 0.687500
vt 0.687500 0.500000
vt 0.750000 0.500000
vt 0.812500 0.500000
vt 0.875000 0.500000
vt 0.875000 0.562500
vt 0.875000 0.625000
vt 0.875000 0.687500
vt 0.812500 0.687500
vt 0.875000 0.750000
vt 0.812500 0.750000
vt 0.687500 0.750000
vt 0.750000 0.750000
vt 0.250000 0.750000
s 1
usemtl None
f 41/1/1 42/2/2 45/3/3 44/4/4
f 42/2/2 43/5/5 46/6/6 45/3/3
f 44/4/4 45/3/3 48/7/7 47/8/8
f 45/3/3 46/6/6 49/9/9 48/7/7
f 1/10/10 12/11/11 41/1/1 11/12/12
f 12/11/11 13/13/13 42/2/2 41/1/1
f 13/13/13 14/14/14 43/5/5 42/2/2
f 14/14/14 2/15/15 15/16/16 43/5/5
f 43/5/5 15/16/16 16/17/17 46/6/6
f 46/6/6 16/17/17 17/18/18 49/9/9
f 49/9/9 17/18/18 4/19/19 18/20/20
f 48/7/7 49/9/9 18/20/20 19/21/21
f 47/8/8 48/7/7 19/21/21 20/22/22
f 9/23/23 47/8/8 20/22/22 3/24/24
f 10/25/25 44/4/4 47/8/8 9/23/23
f 11/12/12 41/1/1 44/4/4 10/25/25
f 50/26/26 51/27/27 54/28/28 53/29/29
f 51/27/27 52/30/30 55/31/31 54/28/28
f 53/29/29 54/28/28 57/32/32 56/33/33
f 54/28/28 55/31/31 58/34/34 57/32/32
f 3/24/24 20/22/22 50/26/26 23/35/35
f 20/22/22 19/21/21 51/27/27 50/26/26
f 19/21/21 18/20/20 52/30/30 51/27/27
f 18/20/20 4/19/19 24/36/36 52/30/30
f 52/30/30 24/36/36 25/37/37 55/31/31
f 55/31/31 25/37/37 26/38/38 58/34/34
f 58/34/34 26/38/38 8/39/39 27/40/40
f 57/32/32 58/34/34 27/40/40 28/41/41
f 56/33/33 57/32/32 28/41/41 29/42/42
f 21/43/43 56/33/33 29/42/42 7/44/44
f 22/45/45 53/29/29 56/33/33 21/43/43
f 23/35/35 50/26/26 53/29/29 22/45/45
f 59/46/46 60/47/47 63/48/48 62/49/49
f 60/47/47 61/50/50 64/51/51 63/48/48
f 62/49/49 63/48/48 66/52/52 65/53/53
f 63/48/48 64/51/51 67/54/54 66/52/52
f 7/44/44 29/42/42 59/46/46 32/55/55
f 29/42/42 28/41/41 60/47/47 59/46/46
f 28/41/41 27/40/40 61/50/50 60/47/47
f 27/40/40 8/39/39 33/56/56 61/50/50
f 61/50/50 33/56/56 34/57/57 64/51/51
f 64/51/51 34/57/57 35/58/58 67/54/54
f 67/54/54 35/58/58 6/59/59 36/60/60
f 66/52/52 67/54/54 36/60/60 37/61/61
f 65/53/53 66/52/52 37/61/61 38/62/62
f 30/63/63 65/53/53 38/62/62 5/64/64
f 31/65/65 62/49/49 65/53/53 30/63/63
f 32/55/55 59/46/46 62/49/49 31/65/65
f 68/66/66 69/67/67 72/68/68 71/69/69
f 69/67/67 70/70/70 73/71/71 72/68/68
f 71/69/69 72/68/68 74/72/72
f 72/68/68 73/71/71 74/73/72
f 3/74/24 23/75/35 68/66/66 9/76/23
f 23/75/35 22/77/45 69/67/67 68/66/66
f 22/77/45 21/78/43 70/70/70 69/67/67
f 21/78/43 7/44/44 32/55/55 70/70/70
f 70/70/70 32/55/55 31/65/65 73/71/71
f 73/71/71 31/65/65 30/63/63 74/79/72
f 74/79/72 30/63/63 5/64/64 39/80/73
f 11/81/12 74/72/72 39/82/73 1/83/10
f 10/84/25 71/69/69 74/72/72 11/81/12
f 9/76/23 68/66/66 71/69/69 10/84/25
f 75/85/74 76/86/75 79/87/76 78/88/77
f 76/86/75 77/89/78 80/90/79 79/87/76
f 78/88/77 79/87/76 81/91/80
f 79/87/76 80/90/79 81/92/80
f 8/39/39 26/93/38 75/85/74 33/56/56
f 26/93/38 25/94/37 76/86/75 75/85/74
f 25/94/37 24/95/36 77/89/78 76/86/75
f 24/95/36 4/96/19 17/97/18 77/89/78
f 77/89/78 17/97/18 16/98/17 80/90/79
f 80/90/79 16/98/17 15/99/16 81/100/80
f 81/100/80 15/99/16 2/101/15 40/102/81
f 35/58/58 81/91/80 40/103/81 6/59/59
f 34/57/57 78/88/77 81/91/80 35/58/58
f 33/56/56 75/85/74 78/88/77 34/57/57
f 2/101/15 14/14/14 40/102/81
f 36/60/60 6/59/59 40/104/81
f 36/60/60 40/104/81 14/14/14 37/61/61
f 13/13/13 12/11/11 37/61/61 14/14/14
f 12/11/11 1/83/10 39/105/73
f 5/64/64 38/62/62 39/80/73
f 38/62/62 37/61/61 12/11/11 39/105/73
